<svg width="72" height="72" viewBox="0 0 72 72" fill="none" xmlns="http://www.w3.org/2000/svg">
<g filter="url(#filter0_n_10059_92)">
<g clip-path="url(#clip0_10059_92)">
<path d="M61.344 0H10.656C4.77085 0 0 4.78041 0 10.6774V61.3226C0 67.2196 4.77085 72 10.656 72H61.344C67.2291 72 72 67.2196 72 61.3226V10.6774C72 4.78041 67.2291 0 61.344 0Z" fill="white"/>
<path d="M25.235 42.68C24.723 42.584 24.211 42.52 23.699 42.488C23.219 42.456 22.723 42.344 22.211 42.152C22.019 42.088 21.779 41.912 21.491 41.624C21.235 41.336 21.059 41.112 20.963 40.952C20.771 40.664 20.627 40.376 20.531 40.088C20.467 39.8 20.451 39.496 20.483 39.176C20.515 39.08 20.531 38.952 20.531 38.792C20.531 38.312 20.675 37.816 20.963 37.304C21.251 36.792 21.507 36.312 21.731 35.864L21.875 35.72C22.195 35.08 22.627 34.36 23.171 33.56C23.715 32.76 24.195 32.072 24.611 31.496C24.899 31.08 25.203 30.68 25.523 30.296C25.875 29.912 26.179 29.512 26.435 29.096L27.203 27.848L27.539 27.416L27.635 27.272C27.635 27.24 27.635 27.224 27.635 27.224C27.667 27.192 27.683 27.176 27.683 27.176C28.163 26.408 28.627 25.624 29.075 24.824C29.555 24.024 29.843 23.16 29.939 22.232C29.971 22.136 30.003 22.04 30.035 21.944C30.067 21.848 30.099 21.752 30.131 21.656V21.464C30.131 21.272 30.115 21.064 30.083 20.84C30.051 20.616 30.051 20.456 30.083 20.36L29.939 19.736C29.715 19.576 29.603 19.448 29.603 19.352C29.635 19.224 29.459 19.064 29.075 18.872L28.883 18.68C28.851 18.776 28.771 18.824 28.643 18.824C28.387 18.824 28.227 18.712 28.163 18.488L27.827 18.536C27.795 18.44 27.603 18.36 27.251 18.296C26.931 18.232 26.739 18.216 26.675 18.248L26.531 18.104C26.435 18.104 26.307 18.104 26.147 18.104C26.019 18.072 25.907 18.072 25.811 18.104C25.715 18.168 25.635 18.184 25.571 18.152C25.507 18.12 25.411 18.104 25.283 18.104C25.187 18.104 25.091 18.12 24.995 18.152C24.899 18.184 24.787 18.216 24.659 18.248L24.371 18.392C24.083 18.456 23.731 18.504 23.315 18.536C22.931 18.536 22.611 18.616 22.355 18.776L22.307 18.68L21.155 19.016L20.819 19.064C20.595 19.256 20.483 19.384 20.483 19.448C20.483 19.576 20.595 19.656 20.819 19.688C21.043 19.688 21.059 19.752 20.867 19.88C20.611 20.008 20.339 20.104 20.051 20.168C19.763 20.232 19.491 20.344 19.235 20.504C19.107 20.6 18.979 20.696 18.851 20.792C18.755 20.856 18.611 20.872 18.419 20.84L18.275 20.936L17.651 21.416C17.363 21.384 17.027 21.48 16.643 21.704C16.259 21.928 15.939 22.12 15.683 22.28L15.635 22.184C15.571 22.216 15.491 22.28 15.395 22.376C15.331 22.472 15.267 22.552 15.203 22.616L13.571 23.576L13.427 23.528L13.235 23.912L13.139 23.864C12.819 24.12 12.531 24.344 12.275 24.536C12.051 24.728 11.827 25.016 11.603 25.4L11.651 25.976C11.779 26.04 11.891 26.088 11.987 26.12C12.115 26.152 12.243 26.184 12.371 26.216L12.467 26.12C13.203 26.184 13.891 26.136 14.531 25.976L14.579 26.024L14.915 25.832L14.963 25.928L16.211 25.544L16.259 25.592C16.419 25.464 16.547 25.4 16.643 25.4C16.771 25.4 16.659 25.544 16.307 25.832C15.955 26.12 15.571 26.232 15.155 26.168L15.011 26.408H14.627C14.659 26.312 14.611 26.312 14.483 26.408C14.387 26.504 14.339 26.552 14.339 26.552C13.923 26.68 13.571 26.776 13.283 26.84C12.995 26.904 12.691 26.936 12.371 26.936C12.243 26.936 12.083 26.92 11.891 26.888C11.731 26.856 11.555 26.84 11.363 26.84H11.315C11.251 26.84 11.171 26.856 11.075 26.888C11.011 26.92 10.931 26.92 10.835 26.888C10.291 26.6 10.019 26.216 10.019 25.736C10.019 25.192 10.227 24.632 10.643 24.056C11.059 23.48 11.507 23 11.987 22.616C12.467 22.232 12.803 22.056 12.995 22.088L13.043 21.896L13.475 21.704L13.667 21.464L13.715 21.56L14.627 20.792L14.675 20.84L15.635 20.312L15.683 20.408C15.747 20.344 15.811 20.28 15.875 20.216C15.971 20.152 16.003 20.2 15.971 20.36L16.307 20.024L16.355 20.072C16.707 19.72 16.963 19.544 17.123 19.544C17.315 19.544 17.619 19.464 18.035 19.304C18.355 19.176 18.675 19.032 18.995 18.872C19.347 18.68 19.683 18.568 20.003 18.536C20.195 18.472 20.355 18.424 20.483 18.392C20.611 18.36 20.755 18.312 20.915 18.248L20.963 18.344C21.059 18.28 21.235 18.2 21.491 18.104C21.779 18.008 22.051 17.928 22.307 17.864C22.595 17.768 22.771 17.752 22.835 17.816C22.899 17.912 22.963 17.96 23.027 17.96C23.155 17.96 23.267 17.912 23.363 17.816C23.491 17.72 23.603 17.656 23.699 17.624C23.859 17.592 24.003 17.576 24.131 17.576C24.291 17.544 24.435 17.544 24.563 17.576C24.595 17.576 24.659 17.56 24.755 17.528C24.819 17.496 24.931 17.48 25.091 17.48C25.315 17.48 25.571 17.512 25.859 17.576C26.147 17.64 26.355 17.672 26.483 17.672H26.579C26.675 17.672 26.787 17.656 26.915 17.624C27.075 17.56 27.171 17.544 27.203 17.576C27.395 17.672 27.603 17.752 27.827 17.816C28.051 17.848 28.259 17.912 28.451 18.008C28.611 18.136 28.787 18.184 28.979 18.152C29.203 18.12 29.331 18.12 29.363 18.152C29.907 18.536 30.371 18.824 30.755 19.016C31.171 19.208 31.507 19.656 31.763 20.36C31.955 20.84 32.051 21.32 32.051 21.8C32.051 22.024 32.019 22.248 31.955 22.472C31.923 22.696 31.875 22.936 31.811 23.192C31.715 23.448 31.619 23.704 31.523 23.96C31.459 24.184 31.395 24.424 31.331 24.68C31.299 24.808 31.139 25.128 30.851 25.64C30.595 26.152 30.323 26.664 30.035 27.176C29.747 27.656 29.539 27.96 29.411 28.088C29.187 28.344 28.947 28.632 28.691 28.952C28.467 29.272 28.259 29.592 28.067 29.912C27.779 30.328 27.491 30.728 27.203 31.112C26.915 31.464 26.611 31.848 26.291 32.264C25.939 32.712 25.603 33.192 25.283 33.704C24.963 34.216 24.643 34.728 24.323 35.24C24.259 35.368 24.195 35.512 24.131 35.672C24.099 35.8 24.019 35.928 23.891 36.056H23.843C23.779 36.056 23.699 36.12 23.603 36.248C23.539 36.344 23.491 36.424 23.459 36.488C23.491 36.616 23.427 36.856 23.267 37.208C23.139 37.56 22.995 37.928 22.835 38.312C22.675 38.664 22.563 38.904 22.499 39.032C22.403 39.224 22.355 39.352 22.355 39.416C22.387 39.48 22.387 39.592 22.355 39.752C22.323 40.424 22.563 40.904 23.075 41.192C23.619 41.512 24.163 41.752 24.707 41.912C24.835 41.944 24.947 41.96 25.043 41.96C25.171 41.992 25.299 42.008 25.427 42.008C25.939 42.008 26.451 41.928 26.963 41.768C27.475 41.608 27.907 41.448 28.259 41.288C28.643 41.16 28.867 41.112 28.931 41.144L29.075 40.952C29.235 40.952 29.363 40.92 29.459 40.856C29.587 40.792 29.715 40.744 29.843 40.712C29.907 40.648 29.987 40.616 30.083 40.616C30.147 40.616 30.179 40.616 30.179 40.616L30.515 40.424L30.467 40.376C30.467 40.312 30.547 40.264 30.707 40.232C30.867 40.168 30.963 40.136 30.995 40.136V40.04L31.475 39.752C31.507 39.72 31.539 39.72 31.571 39.752C31.603 39.752 31.635 39.736 31.667 39.704C31.827 39.64 31.955 39.528 32.051 39.368C32.147 39.208 32.275 39.112 32.435 39.08C32.787 38.92 33.203 38.632 33.683 38.216C34.195 37.768 34.675 37.304 35.123 36.824C35.603 36.344 35.971 35.96 36.227 35.672C36.323 35.576 36.403 35.464 36.467 35.336C36.563 35.208 36.659 35.112 36.755 35.048L39.683 32.024C39.779 31.928 39.875 31.832 39.971 31.736C40.067 31.608 40.131 31.48 40.163 31.352C40.163 31.352 40.275 31.24 40.499 31.016C40.723 30.76 40.963 30.504 41.219 30.248C41.475 29.96 41.635 29.768 41.699 29.672C41.763 29.544 41.859 29.352 41.987 29.096C42.115 28.808 42.179 28.6 42.179 28.472C42.179 28.408 42.131 28.344 42.035 28.28C41.939 28.184 41.891 28.072 41.891 27.944C41.891 27.72 41.859 27.512 41.795 27.32C41.731 27.096 41.699 26.904 41.699 26.744C41.731 26.488 41.811 26.2 41.939 25.88C42.067 25.56 42.243 25.336 42.467 25.208C42.595 25.144 42.691 25.112 42.755 25.112L42.899 25.16C42.963 25.096 42.979 25.032 42.947 24.968C42.947 24.904 42.963 24.84 42.995 24.776V24.68L42.947 24.488C42.915 24.36 42.899 24.12 42.899 23.768C42.899 23.384 42.899 23.032 42.899 22.712C42.899 22.36 42.883 22.168 42.851 22.136V21.896C42.915 21.928 42.979 21.912 43.043 21.848C43.139 21.784 43.203 21.752 43.235 21.752C43.331 21.752 43.379 21.816 43.379 21.944C43.443 22.072 43.459 22.2 43.427 22.328C43.395 22.456 43.379 22.584 43.379 22.712C43.379 22.84 43.427 22.968 43.523 23.096C43.619 23.192 43.683 23.304 43.715 23.432C43.747 23.496 43.747 23.592 43.715 23.72C43.715 23.816 43.731 23.896 43.763 23.96C43.795 24.024 43.843 24.088 43.907 24.152C43.971 24.216 44.019 24.28 44.051 24.344V24.392C44.051 24.456 44.019 24.568 43.955 24.728C43.891 24.888 43.875 25.032 43.907 25.16C44.003 26.056 44.243 26.968 44.627 27.896C44.691 27.992 44.755 28.072 44.819 28.136C44.915 28.2 44.979 28.28 45.011 28.376V28.52C44.979 28.584 44.947 28.632 44.915 28.664C44.915 28.696 44.915 28.744 44.915 28.808C44.915 29.128 44.963 29.4 45.059 29.624C45.187 29.816 45.315 30.024 45.443 30.248V30.344C45.443 30.696 45.491 31.016 45.587 31.304C45.715 31.592 45.875 31.88 46.067 32.168C46.099 32.2 46.099 32.28 46.067 32.408C46.067 32.504 46.083 32.584 46.115 32.648C46.179 32.776 46.259 32.888 46.355 32.984C46.451 33.08 46.515 33.176 46.547 33.272C46.643 33.432 46.691 33.608 46.691 33.8C46.723 33.992 46.771 34.168 46.835 34.328C46.899 34.456 46.995 34.568 47.123 34.664C47.251 34.728 47.347 34.824 47.411 34.952C47.603 35.272 47.795 35.656 47.987 36.104C48.211 36.52 48.435 36.856 48.659 37.112V37.16C48.659 37.288 48.723 37.416 48.851 37.544C48.979 37.64 49.091 37.752 49.187 37.88C49.219 37.944 49.235 38.04 49.235 38.168C49.267 38.296 49.315 38.36 49.379 38.36C49.443 38.36 49.459 38.36 49.427 38.36C49.427 38.328 49.459 38.312 49.523 38.312L50.051 38.744C50.115 38.776 50.147 38.824 50.147 38.888C50.147 38.92 50.163 38.952 50.195 38.984C50.259 39.016 50.339 39.032 50.435 39.032C50.531 39.032 50.595 39.096 50.627 39.224C50.659 39.288 50.755 39.416 50.915 39.608C51.075 39.8 51.171 39.912 51.203 39.944C51.235 39.976 51.267 39.992 51.299 39.992C51.331 39.96 51.363 39.96 51.395 39.992C51.619 40.088 51.811 40.248 51.971 40.472C52.131 40.696 52.323 40.808 52.547 40.808H52.595C52.723 40.808 52.835 40.776 52.931 40.712C53.027 40.648 53.123 40.616 53.219 40.616C53.283 40.648 53.299 40.68 53.267 40.712C53.267 40.712 53.299 40.712 53.363 40.712C53.427 40.712 53.443 40.696 53.411 40.664C53.379 40.6 53.395 40.584 53.459 40.616C53.523 40.616 53.571 40.648 53.603 40.712C53.667 40.744 53.731 40.776 53.795 40.808C53.955 40.808 54.067 40.76 54.131 40.664C54.227 40.536 54.307 40.424 54.371 40.328C54.435 40.264 54.499 40.248 54.563 40.28C54.659 40.28 54.739 40.264 54.803 40.232C54.899 40.136 54.979 40.04 55.043 39.944C55.139 39.848 55.251 39.784 55.379 39.752C55.475 39.688 55.555 39.608 55.619 39.512C55.715 39.352 55.779 39.176 55.811 38.984C55.843 38.792 55.875 38.632 55.907 38.504C56.067 38.504 56.163 38.456 56.195 38.36C56.355 38.008 56.483 37.624 56.579 37.208L56.627 37.016C56.627 36.952 56.611 36.904 56.579 36.872C56.579 36.84 56.579 36.808 56.579 36.776V36.632C56.579 36.472 56.595 36.312 56.627 36.152C56.659 35.96 56.691 35.8 56.723 35.672C56.787 35.736 56.819 35.704 56.819 35.576L57.011 33.464C57.011 33.4 56.995 33.368 56.963 33.368C56.931 33.336 56.915 33.304 56.915 33.272C56.883 32.824 56.819 32.472 56.723 32.216C56.627 31.928 56.547 31.576 56.483 31.16C56.451 31.064 56.451 30.968 56.483 30.872C56.515 30.776 56.515 30.696 56.483 30.632C56.451 30.312 56.387 30.12 56.291 30.056C56.227 29.992 56.163 29.912 56.099 29.816C56.067 29.72 56.051 29.512 56.051 29.192C56.051 29.128 56.019 29.048 55.955 28.952C55.891 28.856 55.843 28.792 55.811 28.76L55.667 28.904C55.539 28.648 55.443 28.392 55.379 28.136C55.315 27.88 55.203 27.64 55.043 27.416C55.011 27.384 54.995 27.288 54.995 27.128C55.027 26.968 55.043 26.872 55.043 26.84C54.979 26.776 54.899 26.744 54.803 26.744C54.739 26.712 54.675 26.664 54.611 26.6C54.579 26.44 54.515 26.344 54.419 26.312C54.355 26.28 54.275 26.2 54.179 26.072C54.147 26.04 54.131 25.992 54.131 25.928C54.163 25.832 54.147 25.736 54.083 25.64C54.051 25.608 53.987 25.592 53.891 25.592C53.827 25.592 53.779 25.56 53.747 25.496C53.715 25.4 53.619 25.272 53.459 25.112C53.331 24.952 53.187 24.872 53.027 24.872C52.963 24.904 52.915 24.952 52.883 25.016C52.851 25.08 52.819 25.112 52.787 25.112C52.659 25.08 52.547 25.032 52.451 24.968C52.387 24.872 52.291 24.824 52.163 24.824C52.099 24.824 52.035 24.84 51.971 24.872C51.939 24.904 51.891 24.92 51.827 24.92C51.795 24.92 51.779 24.872 51.779 24.776C51.811 24.68 51.795 24.632 51.731 24.632H51.683C51.619 24.632 51.539 24.648 51.443 24.68C51.347 24.712 51.267 24.712 51.203 24.68C51.267 24.616 51.235 24.584 51.107 24.584C51.043 24.552 51.027 24.552 51.059 24.584C51.091 24.616 51.075 24.632 51.011 24.632C50.947 24.6 50.867 24.52 50.771 24.392C50.707 24.264 50.627 24.2 50.531 24.2C50.467 24.168 50.451 24.168 50.483 24.2C50.515 24.232 50.499 24.248 50.435 24.248C50.339 24.216 50.243 24.152 50.147 24.056C50.051 23.96 49.971 23.912 49.907 23.912C49.843 23.912 49.811 23.928 49.811 23.96C49.843 23.96 49.827 23.976 49.763 24.008L49.667 23.912C49.539 23.784 49.347 23.592 49.091 23.336C48.835 23.08 48.707 22.856 48.707 22.664C48.739 22.472 48.819 22.264 48.947 22.04C49.075 21.816 49.251 21.72 49.475 21.752C49.539 21.784 49.603 21.832 49.667 21.896C49.731 21.928 49.795 21.96 49.859 21.992H50.003C50.067 22.056 50.131 22.152 50.195 22.28C50.291 22.408 50.371 22.488 50.435 22.52C50.435 22.552 50.451 22.536 50.483 22.472C50.547 22.408 50.595 22.376 50.627 22.376C50.691 22.376 50.723 22.392 50.723 22.424C50.723 22.424 50.739 22.44 50.771 22.472C50.867 22.472 50.963 22.424 51.059 22.328C51.155 22.2 51.235 22.12 51.299 22.088C51.363 22.088 51.379 22.12 51.347 22.184C51.347 22.216 51.363 22.248 51.395 22.28L51.827 22.184L51.923 22.328C52.019 22.36 52.115 22.424 52.211 22.52C52.307 22.584 52.387 22.616 52.451 22.616C52.515 22.648 52.547 22.664 52.547 22.664C52.579 22.632 52.611 22.616 52.643 22.616C52.707 22.616 52.867 22.68 53.123 22.808C53.379 22.936 53.523 23.016 53.555 23.048C53.619 23.08 53.651 23.112 53.651 23.144C53.651 23.176 53.667 23.208 53.699 23.24L53.795 23.144L53.891 23.288L54.035 23.192L54.467 24.008C54.531 24.008 54.595 24.008 54.659 24.008C54.755 23.976 54.819 23.976 54.851 24.008C54.883 24.008 54.899 24.04 54.899 24.104C54.931 24.168 54.963 24.216 54.995 24.248C55.059 24.28 55.219 24.344 55.475 24.44C55.731 24.536 55.875 24.584 55.907 24.584C55.971 24.584 55.987 24.568 55.955 24.536C55.955 24.504 55.987 24.488 56.051 24.488C56.115 24.488 56.163 24.52 56.195 24.584C56.227 24.648 56.275 24.68 56.339 24.68C56.403 24.68 56.419 24.68 56.387 24.68C56.355 24.648 56.371 24.632 56.435 24.632C56.499 24.632 56.531 24.648 56.531 24.68C56.531 24.712 56.547 24.76 56.579 24.824C56.579 24.76 56.643 24.712 56.771 24.68C56.931 24.648 57.027 24.648 57.059 24.68C57.123 24.712 57.251 24.808 57.443 24.968C57.667 25.096 57.747 25.192 57.683 25.256C57.651 25.288 57.539 25.352 57.347 25.448C57.155 25.512 57.027 25.544 56.963 25.544C56.867 25.544 56.771 25.528 56.675 25.496C56.579 25.464 56.483 25.448 56.387 25.448C56.323 25.448 56.291 25.464 56.291 25.496C56.323 25.528 56.307 25.544 56.243 25.544C56.179 25.544 56.115 25.528 56.051 25.496C55.987 25.432 55.907 25.4 55.811 25.4C55.651 25.4 55.539 25.512 55.475 25.736C55.475 25.768 55.539 25.928 55.667 26.216C55.827 26.504 55.987 26.808 56.147 27.128C56.307 27.416 56.403 27.608 56.435 27.704C56.499 27.928 56.563 28.152 56.627 28.376C56.723 28.6 56.787 28.84 56.819 29.096C56.819 29.16 56.819 29.256 56.819 29.384C56.819 29.512 56.835 29.592 56.867 29.624C56.899 29.656 56.931 29.672 56.963 29.672C56.995 29.64 57.027 29.656 57.059 29.72C57.059 29.752 57.059 29.784 57.059 29.816C57.091 29.848 57.107 29.88 57.107 29.912V30.152C57.107 30.184 57.107 30.248 57.107 30.344C57.139 30.44 57.203 30.568 57.299 30.728V30.92C57.299 31.24 57.331 31.576 57.395 31.928C57.459 32.248 57.507 32.584 57.539 32.936C57.571 33.256 57.571 33.576 57.539 33.896C57.539 34.184 57.539 34.488 57.539 34.808C57.539 34.904 57.555 35.016 57.587 35.144C57.619 35.24 57.635 35.32 57.635 35.384C57.635 35.48 57.619 35.56 57.587 35.624C57.555 35.688 57.539 35.752 57.539 35.816C57.507 35.944 57.491 36.088 57.491 36.248C57.491 36.376 57.491 36.504 57.491 36.632C57.459 36.792 57.395 37.08 57.299 37.496C57.203 37.88 57.123 38.152 57.059 38.312C57.027 38.344 56.979 38.36 56.915 38.36C56.883 38.36 56.867 38.392 56.867 38.456C56.771 38.68 56.691 38.92 56.627 39.176C56.563 39.4 56.451 39.624 56.291 39.848C56.099 40.168 55.859 40.424 55.571 40.616C55.315 40.776 55.075 40.984 54.851 41.24C54.595 41.24 54.371 41.336 54.179 41.528C53.987 41.752 53.763 41.864 53.507 41.864C53.379 41.864 53.299 41.848 53.267 41.816C53.235 41.784 53.155 41.816 53.027 41.912L52.931 41.768C52.771 41.928 52.643 42.008 52.547 42.008C52.451 42.008 52.355 41.992 52.259 41.96C52.195 41.928 52.099 41.896 51.971 41.864L51.779 41.672L51.587 41.768C51.363 41.608 51.123 41.432 50.867 41.24C50.611 41.08 50.355 40.936 50.099 40.808L49.715 40.712C49.651 40.648 49.571 40.552 49.475 40.424C49.379 40.296 49.299 40.232 49.235 40.232C49.203 40.2 49.171 40.2 49.139 40.232C49.139 40.264 49.107 40.264 49.043 40.232C49.011 40.232 48.931 40.2 48.803 40.136C48.675 40.04 48.579 39.976 48.515 39.944C48.515 39.88 48.499 39.832 48.467 39.8C48.435 39.736 48.355 39.672 48.227 39.608C48.131 39.512 48.051 39.448 47.987 39.416C47.859 39.288 47.731 39.144 47.603 38.984C47.475 38.792 47.331 38.648 47.171 38.552C47.171 38.424 47.155 38.344 47.123 38.312C46.707 37.832 46.403 37.512 46.211 37.352C46.051 37.16 45.795 36.76 45.443 36.152C45.379 36.024 45.299 35.896 45.203 35.768C45.139 35.64 45.059 35.528 44.963 35.432C44.867 35.304 44.787 35.176 44.723 35.048C44.595 34.792 44.499 34.536 44.435 34.28C44.371 33.992 44.275 33.72 44.147 33.464C44.051 33.272 43.939 33.096 43.811 32.936C43.683 32.744 43.587 32.552 43.523 32.36C43.491 32.232 43.459 32.12 43.427 32.024C43.395 31.928 43.347 31.816 43.283 31.688L42.899 31.064C42.835 30.904 42.771 30.728 42.707 30.536C42.643 30.312 42.579 30.104 42.515 29.912L41.315 31.16C41.027 31.448 40.707 31.752 40.355 32.072C40.003 32.36 39.731 32.68 39.539 33.032C39.411 33.224 39.267 33.416 39.107 33.608C38.947 33.8 38.787 33.976 38.627 34.136C38.019 34.84 37.235 35.656 36.275 36.584C35.347 37.512 34.371 38.392 33.347 39.224C32.355 40.024 31.443 40.664 30.611 41.144C30.483 41.208 30.339 41.256 30.179 41.288C30.051 41.352 29.907 41.432 29.747 41.528C29.683 41.592 29.619 41.608 29.555 41.576L29.123 41.768C29.123 41.704 29.027 41.72 28.835 41.816C28.675 41.912 28.563 41.976 28.499 42.008L28.211 42.104L28.163 42.056L27.635 42.296L27.587 42.248C27.523 42.248 27.443 42.232 27.347 42.2C27.283 42.2 27.219 42.232 27.155 42.296V42.344C26.995 42.472 26.803 42.536 26.579 42.536C26.355 42.536 26.163 42.568 26.003 42.632L26.435 42.152L25.235 42.68Z" fill="black"/>
<path d="M50.1901 59.152C50.1261 59.152 50.0621 59.12 49.9981 59.056L49.8301 59.008L49.7821 59.032L49.8301 58.96C49.8301 58.912 49.7981 58.888 49.7341 58.888C49.6701 58.888 49.6221 58.888 49.5901 58.888C49.6061 58.776 49.5421 58.72 49.3981 58.72C49.2701 58.72 49.2141 58.688 49.2301 58.624L49.1341 58.6C49.1181 58.52 49.0701 58.448 48.9901 58.384C49.0221 58.352 49.0301 58.312 49.0141 58.264C48.9981 58.232 48.9901 58.208 48.9901 58.192C48.9581 58.192 48.9261 58.176 48.8941 58.144L48.8701 58.072C48.8381 58.072 48.7901 58.056 48.7261 58.024C48.7261 57.992 48.7181 57.96 48.7021 57.928C48.7021 57.896 48.7021 57.872 48.7021 57.856H48.6781C48.6621 57.792 48.6381 57.76 48.6061 57.76C48.5901 57.76 48.5661 57.752 48.5341 57.736C48.5021 57.608 48.4941 57.512 48.5101 57.448C48.5261 57.384 48.5261 57.296 48.5101 57.184L48.5341 57.136C48.6141 56.992 48.6541 56.92 48.6541 56.92C48.7021 56.92 48.7421 56.968 48.7741 57.064C48.8061 57.16 48.8381 57.232 48.8701 57.28C48.8861 57.296 48.9101 57.312 48.9421 57.328C48.9741 57.344 48.9821 57.36 48.9661 57.376L48.9421 57.472L48.9901 57.448C48.9901 57.512 49.0061 57.56 49.0381 57.592C49.0541 57.656 49.0861 57.76 49.1341 57.904C49.1821 58.032 49.2621 58.088 49.3741 58.072C49.3741 58.12 49.3981 58.168 49.4461 58.216C49.5101 58.264 49.5661 58.28 49.6141 58.264C49.6301 58.296 49.6701 58.32 49.7341 58.336C49.7981 58.352 49.8461 58.368 49.8781 58.384C49.9581 58.368 50.0381 58.36 50.1181 58.36C50.2141 58.376 50.3021 58.376 50.3821 58.36L50.9101 58.264C50.9261 58.248 51.0061 58.208 51.1501 58.144C51.2941 58.08 51.3981 58.016 51.4621 57.952H51.4861C51.5661 57.952 51.6461 57.936 51.7261 57.904C51.8221 57.856 51.9021 57.816 51.9661 57.784C52.0141 57.768 52.0541 57.744 52.0861 57.712C52.1181 57.664 52.1581 57.632 52.2061 57.616L52.4221 57.496C52.4701 57.464 52.5181 57.456 52.5661 57.472C52.6301 57.472 52.6861 57.44 52.7341 57.376C52.7821 57.344 52.8221 57.304 52.8541 57.256C52.9021 57.208 52.9421 57.168 52.9741 57.136H53.0461C53.0941 57.056 53.1261 56.992 53.1421 56.944L53.5981 56.776C53.6301 56.744 53.6541 56.712 53.6701 56.68C53.7021 56.632 53.7261 56.592 53.7421 56.56C53.7741 56.528 53.8141 56.504 53.8621 56.488C53.9101 56.456 53.9341 56.408 53.9341 56.344C54.0141 56.312 54.0861 56.272 54.1501 56.224C54.2301 56.176 54.2861 56.12 54.3181 56.056C54.3501 56.04 54.4461 55.968 54.6061 55.84C54.7661 55.696 54.9501 55.536 55.1581 55.36C55.3661 55.184 55.5501 55.032 55.7101 54.904C55.8701 54.76 55.9581 54.68 55.9741 54.664L56.0701 54.568L55.3261 54.28C54.9101 54.12 54.4781 53.992 54.0301 53.896C53.5981 53.784 53.1261 53.704 52.6141 53.656C52.5021 53.64 52.4221 53.608 52.3741 53.56C52.3421 53.496 52.3261 53.384 52.3261 53.224C52.3261 53.016 52.4061 52.88 52.5661 52.816C52.7261 52.736 52.9101 52.696 53.1181 52.696C53.3421 52.696 53.5181 52.712 53.6461 52.744C53.7901 52.776 53.9901 52.8 54.2461 52.816C54.2781 52.816 54.3981 52.84 54.6061 52.888C54.8141 52.92 55.0381 52.952 55.2781 52.984C55.3101 52.984 55.4381 52.992 55.6621 53.008C55.9021 53.024 56.1101 53.032 56.2861 53.032C56.4941 53.016 56.7101 53.008 56.9341 53.008C57.1581 53.008 57.3821 53.008 57.6061 53.008L57.9901 52.576C58.1341 52.416 58.2701 52.256 58.3981 52.096C58.5421 51.936 58.6941 51.784 58.8541 51.64C58.9021 51.592 58.9501 51.552 58.9981 51.52C59.0621 51.488 59.1181 51.44 59.1661 51.376L59.3821 51.112C59.4141 51.08 59.4461 51.056 59.4781 51.04C59.5261 51.024 59.5581 51.008 59.5741 50.992C59.6381 50.928 59.6941 50.856 59.7421 50.776C59.7901 50.696 59.8301 50.624 59.8621 50.56C59.8941 50.56 59.9501 50.512 60.0301 50.416C60.1101 50.32 60.1581 50.256 60.1741 50.224C60.2541 50.192 60.3101 50.144 60.3421 50.08C60.3901 50 60.4301 49.92 60.4621 49.84C60.5101 49.808 60.5581 49.776 60.6061 49.744C60.6701 49.696 60.7181 49.648 60.7501 49.6C60.7821 49.552 60.8061 49.496 60.8221 49.432C60.8541 49.368 60.9021 49.328 60.9661 49.312C61.0141 49.184 61.1181 49.04 61.2781 48.88C61.4541 48.704 61.5501 48.584 61.5661 48.52C61.6461 48.504 61.7181 48.456 61.7821 48.376C61.8461 48.28 61.9101 48.216 61.9741 48.184C62.0381 48.008 62.1581 47.856 62.3341 47.728C62.5101 47.584 62.6061 47.432 62.6221 47.272C62.6381 47.24 62.6621 47.216 62.6941 47.2C62.7261 47.184 62.7501 47.168 62.7661 47.152C62.8141 47.12 62.8461 47.08 62.8621 47.032C62.8941 46.968 62.9341 46.912 62.9821 46.864C62.9981 46.832 63.0141 46.808 63.0301 46.792C63.0621 46.776 63.0861 46.76 63.1021 46.744C63.0861 46.744 63.0301 46.728 62.9341 46.696C62.9021 46.696 62.8381 46.696 62.7421 46.696C62.6461 46.68 62.5421 46.672 62.4301 46.672C62.0621 46.672 61.8141 46.688 61.6861 46.72C61.3821 46.736 61.1181 46.76 60.8941 46.792C60.6861 46.824 60.4381 46.88 60.1501 46.96C60.1501 46.96 60.1421 46.952 60.1261 46.936C60.1101 46.92 60.0941 46.912 60.0781 46.912L60.0541 46.888C60.0061 46.872 59.9981 46.88 60.0301 46.912C60.0621 46.944 60.0541 46.968 60.0061 46.984C59.9101 47 59.7981 47.024 59.6701 47.056C59.5581 47.088 59.4541 47.104 59.3581 47.104C59.3101 47.12 59.2621 47.128 59.2141 47.128C59.1661 47.112 59.1181 47.104 59.0701 47.104C58.9101 47.12 58.7501 47.176 58.5901 47.272C58.4461 47.352 58.2941 47.408 58.1341 47.44L57.8461 47.512C57.7341 47.544 57.6461 47.576 57.5821 47.608C57.5341 47.624 57.4461 47.648 57.3181 47.68L57.1021 47.752C57.0541 47.768 56.9981 47.784 56.9341 47.8C56.8861 47.816 56.8301 47.832 56.7661 47.848C56.6381 47.896 56.5021 47.952 56.3581 48.016C56.2301 48.08 56.1021 48.128 55.9741 48.16L55.5421 48.28C55.4941 48.296 55.4221 48.304 55.3261 48.304C55.1981 48.304 55.1101 48.288 55.0621 48.256C54.9981 48.224 54.9181 48.136 54.8221 47.992C54.7421 47.832 54.7101 47.72 54.7261 47.656C54.8221 47.512 55.0141 47.4 55.3021 47.32C55.6061 47.224 55.7981 47.168 55.8781 47.152C55.8941 47.136 55.9661 47.112 56.0941 47.08C56.2381 47.032 56.3741 46.992 56.5021 46.96C56.6301 46.928 56.6941 46.928 56.6941 46.96C56.7101 46.976 56.6221 47.04 56.4301 47.152C56.2381 47.248 56.1341 47.304 56.1181 47.32C56.1181 47.336 56.1021 47.36 56.0701 47.392C56.0541 47.424 56.0541 47.432 56.0701 47.416L56.6221 47.272C56.6541 47.256 56.7181 47.248 56.8141 47.248H56.9821C57.0941 47.248 57.1661 47.232 57.1981 47.2C57.2301 47.136 57.2621 47.104 57.2941 47.104C57.3741 47.072 57.4941 47.048 57.6541 47.032C57.8301 47 57.9421 46.968 57.9901 46.936C58.0701 46.92 58.1581 46.912 58.2541 46.912C58.3501 46.896 58.4381 46.872 58.5181 46.84C58.5661 46.824 58.7261 46.792 58.9981 46.744C59.2861 46.696 59.5741 46.648 59.8621 46.6C60.1501 46.552 60.3101 46.528 60.3421 46.528H60.3661C60.4461 46.528 60.5261 46.52 60.6061 46.504C60.6861 46.472 60.7341 46.504 60.7501 46.6C60.7661 46.6 60.7741 46.608 60.7741 46.624C60.7741 46.624 60.7821 46.624 60.7981 46.624C60.8941 46.624 60.9821 46.584 61.0621 46.504C61.0941 46.488 61.1741 46.472 61.3021 46.456C61.4301 46.44 61.5101 46.432 61.5421 46.432C61.6701 46.416 61.7741 46.408 61.8541 46.408C61.9341 46.408 62.0061 46.408 62.0701 46.408C62.1981 46.408 62.3101 46.416 62.4061 46.432C62.5181 46.432 62.6541 46.44 62.8141 46.456C62.8781 46.472 62.9581 46.48 63.0541 46.48C63.1661 46.48 63.2621 46.488 63.3421 46.504L63.4381 46.384C63.5501 46.32 63.6461 46.288 63.7261 46.288C63.7901 46.288 63.8221 46.32 63.8221 46.384C63.8221 46.56 63.7341 46.72 63.5581 46.864C63.5421 46.88 63.5021 46.904 63.4381 46.936C63.3741 46.952 63.3341 46.976 63.3181 47.008C63.2381 47.216 63.0781 47.408 62.8381 47.584C62.6141 47.76 62.4941 47.888 62.4781 47.968C62.4141 48 62.3421 48.048 62.2621 48.112C62.1821 48.176 62.1341 48.24 62.1181 48.304C62.0381 48.4 61.9741 48.504 61.9261 48.616C61.8781 48.712 61.8061 48.808 61.7101 48.904C61.6621 48.952 61.5821 49.048 61.4701 49.192C61.3581 49.336 61.2461 49.48 61.1341 49.624C61.0221 49.752 60.9421 49.816 60.8941 49.816C60.8461 49.864 60.8221 49.896 60.8221 49.912C60.8381 49.928 60.8061 49.96 60.7261 50.008C60.6461 50.088 60.5821 50.176 60.5341 50.272C60.4381 50.288 60.3581 50.352 60.2941 50.464C60.2461 50.56 60.1981 50.648 60.1501 50.728C60.0861 50.808 60.0141 50.88 59.9341 50.944C59.8701 51.008 59.8061 51.08 59.7421 51.16C59.6781 51.176 59.6061 51.248 59.5261 51.376C59.4621 51.488 59.4141 51.568 59.3821 51.616C59.2861 51.728 59.1981 51.816 59.1181 51.88C59.0541 51.944 59.0221 52.056 59.0221 52.216C58.9901 52.248 58.9421 52.296 58.8781 52.36C58.8141 52.424 58.7741 52.48 58.7581 52.528C58.7261 52.592 58.6781 52.648 58.6141 52.696C58.5661 52.744 58.5261 52.8 58.4941 52.864L58.4221 52.912L58.3981 52.96C58.5901 52.96 58.7821 52.96 58.9741 52.96C59.1661 52.96 59.3501 52.952 59.5261 52.936L60.3181 52.888C60.3501 52.888 60.3981 52.912 60.4621 52.96C60.5421 52.992 60.5901 53 60.6061 52.984C60.6541 52.984 60.6701 52.96 60.6541 52.912C60.6381 52.848 60.6621 52.816 60.7261 52.816C60.8701 52.8 61.0461 52.784 61.2541 52.768C61.4781 52.736 61.6941 52.696 61.9021 52.648L62.1181 51.976L62.3341 51.28C62.3661 51.168 62.4141 51.096 62.4781 51.064C62.5421 51.032 62.5821 50.984 62.5981 50.92C62.6141 50.888 62.5981 50.864 62.5501 50.848C62.5021 50.816 62.5021 50.768 62.5501 50.704C62.6941 50.256 62.8781 49.808 63.1021 49.36C63.3261 48.912 63.5181 48.504 63.6781 48.136V48.112C63.7261 48.048 63.7661 48 63.7981 47.968C63.8461 47.936 63.8781 47.896 63.8941 47.848C63.8781 47.832 63.8781 47.816 63.8941 47.8C63.9101 47.784 63.9021 47.768 63.8701 47.752C63.9821 47.64 64.0461 47.496 64.0621 47.32L64.3021 46.816L64.6621 46.24C64.6781 46.192 64.7181 46.136 64.7821 46.072C64.9101 45.928 65.0221 45.856 65.1181 45.856C65.2621 45.856 65.2701 45.944 65.1421 46.12L65.0941 46.24L64.9261 46.456L64.8301 46.72C64.6701 47.008 64.5181 47.32 64.3741 47.656C64.2301 47.992 64.0701 48.344 63.8941 48.712V48.808C63.8941 48.888 63.8701 48.944 63.8221 48.976C63.7901 49.008 63.7261 49.04 63.6301 49.072C63.6781 49.168 63.6861 49.272 63.6541 49.384L63.4861 49.864C63.4221 50.024 63.3341 50.216 63.2221 50.44C63.1101 50.664 63.0461 50.84 63.0301 50.968C62.8701 51.48 62.7501 51.968 62.6701 52.432C62.7181 52.416 62.7661 52.4 62.8141 52.384C62.8621 52.368 62.9021 52.352 62.9341 52.336C63.0141 52.304 63.0701 52.288 63.1021 52.288C63.1501 52.288 63.2141 52.28 63.2941 52.264C63.3901 52.232 63.4861 52.192 63.5821 52.144C63.6301 52.112 63.6941 52.096 63.7741 52.096C63.8541 52.096 63.8941 52.12 63.8941 52.168C63.8941 52.232 63.8221 52.304 63.6781 52.384L63.1741 52.672C63.0461 52.704 62.9421 52.72 62.8621 52.72C62.8301 52.72 62.7501 52.736 62.6221 52.768L62.5261 53.32L62.5501 53.68C62.5341 53.728 62.4621 53.752 62.3341 53.752C62.2221 53.752 62.2061 53.824 62.2861 53.968C62.3501 54.048 62.3901 54.104 62.4061 54.136C62.4221 54.152 62.4141 54.224 62.3821 54.352C62.3181 54.544 62.2621 54.8 62.2141 55.12C62.1821 55.44 62.1581 55.704 62.1421 55.912C62.1421 55.928 62.1261 55.968 62.0941 56.032C62.0781 56.096 62.0621 56.144 62.0461 56.176C62.0461 56.192 62.0541 56.2 62.0701 56.2C62.1021 56.2 62.1181 56.216 62.1181 56.248C62.1501 56.584 62.1501 56.896 62.1181 57.184L62.0701 57.736C62.0701 57.752 62.0541 57.784 62.0221 57.832C61.9901 57.88 61.9821 57.92 61.9981 57.952C61.9501 58.128 61.8621 58.248 61.7341 58.312C61.6061 58.392 61.4781 58.432 61.3501 58.432C61.1101 58.432 60.9501 58.392 60.8701 58.312L60.7501 58.216V57.688C60.6541 57.608 60.5581 57.528 60.4621 57.448C60.3661 57.368 60.2701 57.296 60.1741 57.232C59.9981 57.104 59.8221 56.992 59.6461 56.896C59.4861 56.784 59.3181 56.664 59.1421 56.536C58.9501 56.392 58.7581 56.24 58.5661 56.08C58.3901 55.92 58.1981 55.768 57.9901 55.624C57.7661 55.464 57.5341 55.32 57.2941 55.192C57.0541 55.048 56.8141 54.92 56.5741 54.808C56.5101 54.872 56.3901 54.992 56.2141 55.168C56.0381 55.328 55.8701 55.488 55.7101 55.648C55.5501 55.792 55.4541 55.872 55.4221 55.888C55.4061 55.92 55.3821 55.952 55.3501 55.984C55.3341 56.016 55.3101 56.048 55.2781 56.08C55.2461 56.096 55.1981 56.12 55.1341 56.152C55.0861 56.184 55.0621 56.216 55.0621 56.248C55.0301 56.28 54.9821 56.312 54.9181 56.344C54.8701 56.36 54.8381 56.4 54.8221 56.464L54.8461 56.488C54.7821 56.504 54.7501 56.52 54.7501 56.536C54.7661 56.552 54.7741 56.584 54.7741 56.632C54.7581 56.648 54.7021 56.68 54.6061 56.728C54.5261 56.776 54.4701 56.808 54.4381 56.824C54.2941 56.904 54.1901 56.968 54.1261 57.016C54.0781 57.064 54.0141 57.16 53.9341 57.304C53.8861 57.336 53.7821 57.4 53.6221 57.496C53.4621 57.592 53.3821 57.656 53.3821 57.688C53.3181 57.704 53.2781 57.736 53.2621 57.784C53.2461 57.832 53.2221 57.872 53.1901 57.904C53.1741 57.936 53.1421 57.96 53.0941 57.976C53.0461 57.992 53.0141 58.024 52.9981 58.072L52.9501 58.096H52.9261C52.8781 58.096 52.8301 58.12 52.7821 58.168C52.7501 58.216 52.7181 58.256 52.6861 58.288C52.5101 58.304 52.3741 58.352 52.2781 58.432C52.1981 58.528 52.0861 58.608 51.9421 58.672C51.7501 58.752 51.5501 58.832 51.3421 58.912C51.1341 58.992 50.9181 59.048 50.6941 59.08C50.6301 59.112 50.5821 59.136 50.5501 59.152C50.5341 59.184 50.4861 59.184 50.4061 59.152C50.4381 59.104 50.4301 59.08 50.3821 59.08C50.3181 59.128 50.2541 59.152 50.1901 59.152ZM60.7981 57.376V57.304C60.7981 57.256 60.8221 57.208 60.8701 57.16C60.8541 57.128 60.8381 57.112 60.8221 57.112C60.8221 57.096 60.8221 57.08 60.8221 57.064L61.3261 54.688C61.3901 54.4 61.4621 54.112 61.5421 53.824C61.6381 53.52 61.7341 53.216 61.8301 52.912C61.7981 52.928 61.7661 52.936 61.7341 52.936C61.6541 52.952 61.5901 52.96 61.5421 52.96C61.4941 52.96 61.4141 52.976 61.3021 53.008C61.1421 53.04 60.9581 53.088 60.7501 53.152C60.5581 53.216 60.3501 53.256 60.1261 53.272C59.9661 53.288 59.8381 53.288 59.7421 53.272C59.6621 53.256 59.5421 53.256 59.3821 53.272C59.3021 53.288 59.1741 53.312 58.9981 53.344C58.8221 53.36 58.6861 53.368 58.5901 53.368L57.8461 53.464C57.8461 53.464 57.8381 53.472 57.8221 53.488C57.8221 53.504 57.8221 53.52 57.8221 53.536C57.7901 53.568 57.7261 53.624 57.6301 53.704C57.5501 53.768 57.5021 53.832 57.4861 53.896L57.4141 53.92C57.3981 53.936 57.3661 53.976 57.3181 54.04C57.2861 54.088 57.2621 54.128 57.2461 54.16C57.1821 54.176 57.1261 54.216 57.0781 54.28C57.0301 54.344 56.9901 54.408 56.9581 54.472C56.8941 54.472 56.8461 54.488 56.8141 54.52C57.1981 54.728 57.5421 54.936 57.8461 55.144C57.9101 55.192 57.9581 55.24 57.9901 55.288C58.0221 55.336 58.0701 55.384 58.1341 55.432C58.2781 55.528 58.4141 55.608 58.5421 55.672C58.6861 55.72 58.8141 55.792 58.9261 55.888L60.3901 56.992C60.4381 57.024 60.5021 57.08 60.5821 57.16C60.6621 57.224 60.7341 57.296 60.7981 57.376ZM56.3581 54.28C56.4861 54.152 56.6141 54.024 56.7421 53.896C56.8701 53.768 56.9981 53.64 57.1261 53.512L55.1821 53.632C54.9581 53.648 54.7981 53.656 54.7021 53.656C54.6221 53.656 54.5021 53.672 54.3421 53.704C54.5501 53.752 54.7501 53.808 54.9421 53.872C55.1341 53.92 55.3261 53.976 55.5181 54.04C55.5981 54.072 55.6701 54.104 55.7341 54.136C55.7981 54.168 55.8621 54.2 55.9261 54.232C55.9581 54.248 55.9901 54.24 56.0221 54.208C56.0541 54.16 56.0781 54.144 56.0941 54.16L56.3581 54.28Z" fill="black"/>
</g>
</g>
<defs>
<filter id="filter0_n_10059_92" x="0" y="0" width="72" height="72" filterUnits="userSpaceOnUse" color-interpolation-filters="sRGB">
<feFlood flood-opacity="0" result="BackgroundImageFix"/>
<feBlend mode="normal" in="SourceGraphic" in2="BackgroundImageFix" result="shape"/>
<feTurbulence type="fractalNoise" baseFrequency="2 2" stitchTiles="stitch" numOctaves="3" result="noise" seed="1625" />
<feColorMatrix in="noise" type="luminanceToAlpha" result="alphaNoise" />
<feComponentTransfer in="alphaNoise" result="coloredNoise1">
<feFuncA type="discrete" tableValues="1 1 1 1 1 1 1 1 1 1 1 1 1 1 1 1 1 1 1 1 1 1 1 1 1 1 1 1 1 1 1 1 1 1 1 1 1 1 1 1 1 1 1 1 1 1 1 1 1 1 1 0 0 0 0 0 0 0 0 0 0 0 0 0 0 0 0 0 0 0 0 0 0 0 0 0 0 0 0 0 0 0 0 0 0 0 0 0 0 0 0 0 0 0 0 0 0 0 0 0 "/>
</feComponentTransfer>
<feComposite operator="in" in2="shape" in="coloredNoise1" result="noise1Clipped" />
<feComponentTransfer in="alphaNoise" result="coloredNoise2">
<feFuncA type="discrete" tableValues="0 0 0 0 0 0 0 0 0 0 0 0 0 0 0 0 0 0 0 0 0 0 0 0 0 0 0 0 0 0 0 0 0 0 0 0 0 0 0 0 0 0 0 0 0 0 0 0 0 1 1 1 1 1 1 1 1 1 1 1 1 1 1 1 1 1 1 1 1 1 1 1 1 1 1 1 1 1 1 1 1 1 1 1 1 1 1 1 1 1 1 1 1 1 1 1 1 1 1 1 "/>
</feComponentTransfer>
<feComposite operator="in" in2="shape" in="coloredNoise2" result="noise2Clipped" />
<feFlood flood-color="rgba(0, 0, 0, 0.25)" result="color1Flood" />
<feComposite operator="in" in2="noise1Clipped" in="color1Flood" result="color1" />
<feFlood flood-color="rgba(255, 255, 255, 0.25)" result="color2Flood" />
<feComposite operator="in" in2="noise2Clipped" in="color2Flood" result="color2" />
<feMerge result="effect1_noise_10059_92">
<feMergeNode in="shape" />
<feMergeNode in="color1" />
<feMergeNode in="color2" />
</feMerge>
</filter>
<clipPath id="clip0_10059_92">
<rect width="72" height="72" fill="white"/>
</clipPath>
</defs>
</svg>
